<?xml version="1.0" encoding="UTF-8" standalone="no"?>
<svg width="19px" height="16px" viewBox="0 0 19 16" version="1.1" xmlns="http://www.w3.org/2000/svg" xmlns:xlink="http://www.w3.org/1999/xlink" xmlns:sketch="http://www.bohemiancoding.com/sketch/ns">
    <!-- Generator: Sketch 3.3 (11970) - http://www.bohemiancoding.com/sketch -->
    <title>Icon</title>
    <desc>Created with Sketch.</desc>
    <defs></defs>
    <g id="Page-1" stroke="none" stroke-width="1" fill="none" fill-rule="evenodd" sketch:type="MSPage">
        <g id="View-Tweets---News-Page" sketch:type="MSArtboardGroup" transform="translate(-109.000000, -248.000000)" fill="#FFD444">
            <g id="Tweets" sketch:type="MSLayerGroup" transform="translate(56.000000, 149.000000)">
                <g id="Tweet" sketch:type="MSShapeGroup">
                    <g id="Favorites" transform="translate(53.000000, 99.000000)">
                        <path d="M6.62283871,5.158 C6.62283871,5.158 3.15703226,5.508 0.845032258,5.742 C0.636645161,5.765 0.452387097,5.892 0.383290323,6.085 C0.314193548,6.278 0.383290323,6.479 0.53683871,6.606 C2.2543871,8.035 4.83509677,10.175 4.83509677,10.175 C4.83290323,10.175 4.12658065,13.288 3.65716129,15.365 C3.61767742,15.553 3.69225806,15.752 3.87212903,15.871 C4.05090323,15.99 4.28122581,15.992 4.46219355,15.899 C6.48464516,14.851 9.51393548,13.275 9.51393548,13.275 C9.51393548,13.275 12.5443226,14.851 14.5634839,15.9 C14.7477419,15.992 14.9780645,15.99 15.1568387,15.871 C15.3367097,15.752 15.4112903,15.553 15.3707097,15.366 C14.9012903,13.288 14.1960645,10.175 14.1960645,10.175 C14.1960645,10.175 16.7767742,8.035 18.4943226,6.609 C18.647871,6.478 18.715871,6.277 18.647871,6.085 C18.579871,5.893 18.3956129,5.766 18.1872258,5.744 C15.8752258,5.508 12.4083226,5.158 12.4083226,5.158 C12.4083226,5.158 10.9715484,2.26 10.0140645,0.328 C9.92412903,0.155 9.73548387,0.034 9.51393548,0.034 C9.2923871,0.034 9.10264516,0.156 9.01709677,0.328 C8.05851613,2.26 6.62283871,5.158 6.62283871,5.158 L6.62283871,5.158 Z" id="Icon"></path>
                    </g>
                </g>
            </g>
        </g>
    </g>
</svg>