<?xml version="1.0" encoding="UTF-8" standalone="no"?>
<svg width="19px" height="13px" viewBox="0 0 19 13" version="1.1" xmlns="http://www.w3.org/2000/svg" xmlns:xlink="http://www.w3.org/1999/xlink" xmlns:sketch="http://www.bohemiancoding.com/sketch/ns">
    <!-- Generator: Sketch 3.3 (11970) - http://www.bohemiancoding.com/sketch -->
    <title>Icon</title>
    <desc>Created with Sketch.</desc>
    <defs></defs>
    <g id="Page-1" stroke="none" stroke-width="1" fill="none" fill-rule="evenodd" sketch:type="MSPage">
        <g id="View-Tweets---News-Page" sketch:type="MSArtboardGroup" transform="translate(-288.000000, -251.000000)" fill="#91979B">
            <g id="Tweets" sketch:type="MSLayerGroup" transform="translate(56.000000, 149.000000)">
                <g id="Tweet" sketch:type="MSShapeGroup">
                    <g id="Replies" transform="translate(232.000000, 102.000000)">
                        <path d="M8.19354839,1 C8.19354839,0.485 7.71645161,0 7.09677419,0 C6.53083871,0 6.28296774,0.344 6,0.586 L1.15006452,5 C0.765096774,5.359 0.516129032,5.547 0.516129032,6 C0.516129032,6.453 0.765096774,6.641 1.15006452,7 L6,11.414 C6.28296774,11.656 6.53083871,12 7.09677419,12 C7.71645161,12 8.19354839,11.515 8.19354839,11 L8.19354839,8.00482178 C13.7366628,8.00482178 14.0801411,8.39344883 15.7850856,12 C16.4921383,13.1948338 18.0645161,12.2422991 18.0645161,11 C18.0645161,5.083 13.7695484,4.02910042 8.19354839,4.02910042 L8.19354839,1 Z" id="Icon"></path>
                    </g>
                </g>
            </g>
        </g>
    </g>
</svg>